<svg width="18.000000" height="18.000000" viewBox="0 0 18 18" fill="none" xmlns="http://www.w3.org/2000/svg" xmlns:xlink="http://www.w3.org/1999/xlink">
	<desc>
			Created with Pixso.
	</desc>
	<defs>
		<clipPath id="clip4_858">
			<rect id="fi_2107957" rx="0.000000" width="17.000000" height="17.000000" transform="translate(0.500000 0.500000)" fill="white" fill-opacity="0"/>
		</clipPath>
	</defs>
	<rect id="fi_2107957" rx="0.000000" width="17.000000" height="17.000000" transform="translate(0.500000 0.500000)" fill="#FFFFFF" fill-opacity="0"/>
	<g clip-path="url(#clip4_858)">
		<path id="Vector" d="M17.52 6.43L11.98 5.59L9.5 0.3C9.32 -0.09 8.67 -0.09 8.49 0.3L6.01 5.59L0.47 6.43C0.02 6.5 -0.16 7.06 0.16 7.38L4.18 11.5L3.23 17.33C3.15 17.79 3.64 18.14 4.05 17.91L9 15.18L13.94 17.91C14.34 18.14 14.84 17.8 14.76 17.33L13.81 11.5L17.83 7.38C18.15 7.06 17.97 6.5 17.52 6.43Z" fill="#FFC107" fill-opacity="1.000000" fill-rule="nonzero"/>
	</g>
</svg>
